<svg width="864" height="864" viewBox="0 0 864 864" fill="none" xmlns="http://www.w3.org/2000/svg">
<g filter="url(#filter0_dii)">
<path fill-rule="evenodd" clip-rule="evenodd" d="M844 262.627C844 252.845 844.004 243.062 843.944 233.279C843.895 225.038 843.8 216.799 843.576 208.562C843.092 190.609 842.033 172.502 838.84 154.749C835.602 136.741 830.314 119.98 821.981 103.617C813.789 87.5337 803.088 72.8168 790.32 60.0578C777.555 47.2989 762.834 36.6049 746.746 28.4179C730.366 20.0829 713.587 14.797 695.558 11.56C677.803 8.37199 659.691 7.315 641.738 6.83C633.495 6.607 625.253 6.513 617.008 6.462C607.22 6.402 597.432 6.407 587.644 6.407L473.997 6H388.997L277.361 6.407C267.554 6.407 257.747 6.402 247.94 6.462C239.678 6.513 231.42 6.607 223.161 6.83C205.167 7.315 187.014 8.37299 169.217 11.565C151.164 14.801 134.36 20.0849 117.958 28.4139C101.835 36.6019 87.0825 47.2969 74.2906 60.0578C61.5007 72.8158 50.7798 87.5297 42.5728 103.61C34.2169 119.981 28.9189 136.752 25.673 154.77C22.477 172.516 21.418 190.617 20.931 208.562C20.709 216.8 20.613 225.039 20.563 233.279C20.503 243.063 20 255.216 20 264.999L20.003 375.089L20 460.998L20.508 573.427C20.508 583.223 20.504 593.019 20.563 602.815C20.613 611.067 20.709 619.317 20.932 627.566C21.418 645.542 22.479 663.675 25.678 681.452C28.9229 699.484 34.2199 716.269 42.5688 732.653C50.7768 748.759 61.4997 763.495 74.2906 776.272C87.0815 789.049 101.83 799.757 117.95 807.956C134.362 816.302 151.174 821.595 169.238 824.836C187.027 828.029 205.174 829.088 223.161 829.573C231.42 829.796 239.679 829.891 247.941 829.941C257.748 830.001 267.554 829.997 277.361 829.997L390.006 830H475.217L587.644 829.996C597.432 829.996 607.22 830.001 617.008 829.941C625.253 829.891 633.495 829.796 641.738 829.573C659.698 829.087 677.816 828.027 695.579 824.832C713.597 821.591 730.368 816.3 746.739 807.959C762.831 799.761 777.554 789.051 790.32 776.272C803.086 763.497 813.786 748.763 821.978 732.66C830.316 716.268 835.604 699.475 838.844 681.431C842.034 663.661 843.092 645.535 843.577 627.566C843.8 619.316 843.895 611.066 843.944 602.815C844.005 593.019 844 583.223 844 573.427C844 573.427 843.994 462.983 843.994 460.998V374.999C843.994 373.533 844 262.627 844 262.627Z" fill="#4A2C81"/>
</g>
<g filter="url(#filter1_ddii)">
<rect x="75" y="60" width="716" height="716" rx="130" fill="url(#paint0_linear)"/>
</g>
<g filter="url(#filter2_d)">
<path d="M244.625 234C246.639 237.4 249.391 240.206 252.638 242.171C255.724 243.985 259.151 245.002 262.655 245.143C278.909 246.084 340.856 240.579 368.821 249.226C401.217 259.242 429.681 301.159 430.176 343.229C430.54 374.378 415.592 406.542 395.208 424.492C393.975 425.576 392.99 426.369 392.34 426.903C370.864 444.477 348.291 447.333 326.01 450.173C307.737 452.5 289.257 452.078 271.09 448.919C273.56 459.427 278.981 474.791 292.367 490.973C292.367 490.973 292.852 491.56 293.444 492.258C305.704 506.627 330.155 527.982 364.147 537.02C381.134 541.531 394.524 541.399 401.241 541.352C439.693 541.071 489.318 541.78 554.78 543.329C558.24 543.893 561.419 545.727 563.792 548.528C566.021 551.212 567.421 554.589 567.796 558.185C567.243 572.792 566.686 587.397 566.127 602C564.353 596.584 561.379 591.73 557.468 587.869C554.188 584.665 550.318 582.26 546.117 580.814L384.866 578.588C337.143 577.927 283.044 550.675 252.322 495.03C233.249 460.49 231.453 424.349 232.108 403.126C249.745 410.366 278.166 418.992 313.124 416.495C340.584 414.539 351.66 410.757 357.192 407.584C361.706 404.993 388.802 388.916 394.14 356.587C395.861 345.76 395.095 334.638 391.913 324.211C390.685 320.224 386.574 307.383 376.334 297.531C361.905 283.67 343.365 283.495 323.36 283.315C311.6 283.204 272.075 284.156 270.391 284.304C267.144 284.59 258.986 284.796 251.119 279.137C248.374 277.168 245.949 274.714 243.945 271.876L244.625 234Z" fill="#F9CB25"/>
<path d="M597.901 410.143C611.126 410.143 632.112 400.714 632.112 375.409C632.112 365.011 627.613 356.264 618.722 349.336C627.613 342.408 632.112 333.661 632.112 323.264C632.112 297.953 611.126 288.524 597.901 288.524C575.091 288.524 560.836 307.917 540.045 334.412C536.992 338.305 533.833 342.345 530.416 346.623C529.815 347.375 529.484 348.339 529.484 349.336C529.484 350.334 529.815 351.297 530.416 352.049C533.813 356.344 536.992 360.368 540.045 364.26C561.812 391.999 575.581 410.143 597.901 410.143ZM538.312 349.326C540.933 346.015 543.408 342.858 545.82 339.806C567.573 312.089 579.556 296.822 597.901 296.822C610.35 296.822 624.507 305.69 624.507 323.264C624.507 332.44 619.653 339.78 609.728 345.703C609.129 346.058 608.628 346.584 608.279 347.223C607.93 347.862 607.746 348.592 607.746 349.336C607.746 350.08 607.93 350.81 608.279 351.45C608.628 352.089 609.129 352.614 609.728 352.97C619.673 358.893 624.507 366.233 624.507 375.409C624.507 392.744 610.558 401.851 597.901 401.851C579.556 401.851 567.573 386.583 545.82 358.866C543.394 355.794 540.933 352.636 538.312 349.347V349.326Z" fill="#F9CB25"/>
<path d="M424.095 415.86C434.986 397.972 442.099 377.673 444.92 356.428C450.109 355.356 455.437 355.356 460.626 356.428C473.856 359.188 482.053 368.221 484.984 371.812C474.021 381.025 469.716 395.61 473.856 407.219C477.253 416.78 485.28 421.096 487.654 422.259C480.116 427.288 471.552 430.204 462.727 430.747C442.042 431.916 427.599 419.144 424.095 415.86Z" fill="#F9CB25"/>
<path d="M534.037 347.317L581.41 296.811L600.498 292.988L619.64 301.719L628.099 325.803L624.507 338.585L611.185 349.337L624.507 363.806L628.099 378.847L621.421 395.823L612.073 401.862L594.102 407.341L575.203 399.704L534.037 347.317Z" fill="#F9CB25"/>
<path d="M581.249 417.774C564.525 414.104 526.819 429.827 510.095 426.157C493.37 422.486 477.136 404.41 477.136 404.41C477.136 404.41 498.821 413.93 511.827 416.764C524.834 419.599 529.445 415.595 530.658 409.043C533.604 393.098 509.211 385.171 497.02 380.321C486.061 370.125 480.742 362.795 460.649 356.428C460.301 357.716 459.848 358.967 459.295 360.167L430.578 420.984C447.856 434.586 477.859 456.708 495.05 460.479C520.136 465.984 593.761 444.212 595.445 435.094C597.129 425.977 589.582 419.604 581.249 417.774Z" fill="#F9CB25"/>
<path d="M428.278 280.566C439.166 298.447 446.279 318.739 449.103 339.977C454.29 341.049 459.616 341.049 464.803 339.977C478.038 337.216 486.231 328.183 489.167 324.593C478.203 315.375 473.894 300.794 478.038 289.16C481.436 279.603 489.463 275.288 491.836 274.124C483.718 269.516 474.728 267.025 465.575 266.847C446.327 266.578 432.738 276.869 428.278 280.566Z" fill="#F9CB25"/>
<path d="M428.278 280.566C439.166 298.447 446.279 318.739 449.103 339.977C454.29 341.049 459.616 341.049 464.803 339.977C478.038 337.216 486.231 328.183 489.167 324.593C478.203 315.375 473.894 300.794 478.038 289.16C481.436 279.603 489.463 275.288 491.836 274.124C484.298 269.097 475.734 266.18 466.91 265.636C446.225 264.505 431.767 277.282 428.278 280.566Z" fill="#F9CB25"/>
<path d="M585.403 278.629C568.684 282.299 530.974 266.576 514.249 270.247C497.525 273.917 481.271 292.009 481.271 292.009C481.271 292.009 502.955 282.49 515.967 279.66C528.979 276.831 533.585 280.829 534.793 287.381C537.739 303.326 513.346 311.254 501.16 316.098C490.201 326.299 484.882 333.629 464.76 339.997C464.414 338.709 463.962 337.458 463.411 336.258L434.738 275.456C452.015 261.849 482.018 239.732 499.209 235.956C524.291 230.456 597.92 252.224 599.604 261.341C601.288 270.458 593.766 276.815 585.403 278.629Z" fill="#F9CB25"/>
</g>
<defs>
<filter id="filter0_dii" x="0" y="0" width="864" height="864" filterUnits="userSpaceOnUse" color-interpolation-filters="sRGB">
<feFlood flood-opacity="0" result="BackgroundImageFix"/>
<feColorMatrix in="SourceAlpha" type="matrix" values="0 0 0 0 0 0 0 0 0 0 0 0 0 0 0 0 0 0 127 0"/>
<feOffset dy="14"/>
<feGaussianBlur stdDeviation="10"/>
<feColorMatrix type="matrix" values="0 0 0 0 0 0 0 0 0 0 0 0 0 0 0 0 0 0 0.25 0"/>
<feBlend mode="normal" in2="BackgroundImageFix" result="effect1_dropShadow"/>
<feBlend mode="normal" in="SourceGraphic" in2="effect1_dropShadow" result="shape"/>
<feColorMatrix in="SourceAlpha" type="matrix" values="0 0 0 0 0 0 0 0 0 0 0 0 0 0 0 0 0 0 127 0" result="hardAlpha"/>
<feOffset dy="4"/>
<feGaussianBlur stdDeviation="1"/>
<feComposite in2="hardAlpha" operator="arithmetic" k2="-1" k3="1"/>
<feColorMatrix type="matrix" values="0 0 0 0 1 0 0 0 0 1 0 0 0 0 1 0 0 0 0.44 0"/>
<feBlend mode="normal" in2="shape" result="effect2_innerShadow"/>
<feColorMatrix in="SourceAlpha" type="matrix" values="0 0 0 0 0 0 0 0 0 0 0 0 0 0 0 0 0 0 127 0" result="hardAlpha"/>
<feOffset dy="-3"/>
<feGaussianBlur stdDeviation="2"/>
<feComposite in2="hardAlpha" operator="arithmetic" k2="-1" k3="1"/>
<feColorMatrix type="matrix" values="0 0 0 0 0 0 0 0 0 0 0 0 0 0 0 0 0 0 0.25 0"/>
<feBlend mode="normal" in2="effect2_innerShadow" result="effect3_innerShadow"/>
</filter>
<filter id="filter1_ddii" x="72" y="55" width="722" height="727" filterUnits="userSpaceOnUse" color-interpolation-filters="sRGB">
<feFlood flood-opacity="0" result="BackgroundImageFix"/>
<feColorMatrix in="SourceAlpha" type="matrix" values="0 0 0 0 0 0 0 0 0 0 0 0 0 0 0 0 0 0 127 0"/>
<feOffset dy="4"/>
<feGaussianBlur stdDeviation="1"/>
<feColorMatrix type="matrix" values="0 0 0 0 1 0 0 0 0 1 0 0 0 0 1 0 0 0 0.37 0"/>
<feBlend mode="normal" in2="BackgroundImageFix" result="effect1_dropShadow"/>
<feColorMatrix in="SourceAlpha" type="matrix" values="0 0 0 0 0 0 0 0 0 0 0 0 0 0 0 0 0 0 127 0"/>
<feOffset dy="-2"/>
<feGaussianBlur stdDeviation="1.5"/>
<feColorMatrix type="matrix" values="0 0 0 0 0 0 0 0 0 0 0 0 0 0 0 0 0 0 0.59 0"/>
<feBlend mode="normal" in2="effect1_dropShadow" result="effect2_dropShadow"/>
<feBlend mode="normal" in="SourceGraphic" in2="effect2_dropShadow" result="shape"/>
<feColorMatrix in="SourceAlpha" type="matrix" values="0 0 0 0 0 0 0 0 0 0 0 0 0 0 0 0 0 0 127 0" result="hardAlpha"/>
<feOffset dy="5"/>
<feGaussianBlur stdDeviation="10.5"/>
<feComposite in2="hardAlpha" operator="arithmetic" k2="-1" k3="1"/>
<feColorMatrix type="matrix" values="0 0 0 0 0 0 0 0 0 0 0 0 0 0 0 0 0 0 0.23 0"/>
<feBlend mode="normal" in2="shape" result="effect3_innerShadow"/>
<feColorMatrix in="SourceAlpha" type="matrix" values="0 0 0 0 0 0 0 0 0 0 0 0 0 0 0 0 0 0 127 0" result="hardAlpha"/>
<feOffset dy="5"/>
<feGaussianBlur stdDeviation="2"/>
<feComposite in2="hardAlpha" operator="arithmetic" k2="-1" k3="1"/>
<feColorMatrix type="matrix" values="0 0 0 0 0 0 0 0 0 0 0 0 0 0 0 0 0 0 0.07 0"/>
<feBlend mode="normal" in2="effect3_innerShadow" result="effect4_innerShadow"/>
</filter>
<filter id="filter2_d" x="162" y="216" width="502.112" height="470" filterUnits="userSpaceOnUse" color-interpolation-filters="sRGB">
<feFlood flood-opacity="0" result="BackgroundImageFix"/>
<feColorMatrix in="SourceAlpha" type="matrix" values="0 0 0 0 0 0 0 0 0 0 0 0 0 0 0 0 0 0 127 0"/>
<feOffset dx="-19" dy="33"/>
<feGaussianBlur stdDeviation="25.5"/>
<feColorMatrix type="matrix" values="0 0 0 0 0 0 0 0 0 0 0 0 0 0 0 0 0 0 0.45 0"/>
<feBlend mode="normal" in2="BackgroundImageFix" result="effect1_dropShadow"/>
<feBlend mode="normal" in="SourceGraphic" in2="effect1_dropShadow" result="shape"/>
</filter>
<linearGradient id="paint0_linear" x1="433" y1="60" x2="433" y2="776" gradientUnits="userSpaceOnUse">
<stop stop-color="#632DC6"/>
<stop offset="1" stop-color="#4A2C81"/>
</linearGradient>
</defs>
</svg>
